<!DOCTYPE svg PUBLIC "-//W3C//DTD SVG 1.1//EN" "http://www.w3.org/Graphics/SVG/1.1/DTD/svg11.dtd">
<!-- Uploaded to: SVG Repo, www.svgrepo.com, Transformed by: SVG Repo Mixer Tools -->
<svg xmlns="http://www.w3.org/2000/svg" xmlns:xlink="http://www.w3.org/1999/xlink" version="1.1" id="Capa_1" viewBox="-50.5 -50.5 606.00 606.00" xml:space="preserve" width="156px" height="156px" fill="#000000" stroke="#000000" stroke-width="0.005050000000000001">
<g id="SVGRepo_bgCarrier" stroke-width="0">
<path transform="translate(-50.5, -50.5), scale(18.9375)" d="M16,27.14735222235322C18.463930166663832,26.570004619400123,20.685173733393764,25.51910890823915,22.578377191307556,23.83980465118059C24.417185040758824,22.208750240948884,25.52588745717627,20.112317110095358,26.483295219725797,17.848487793969735C27.790002179136636,14.75872642163429,30.310731583047218,11.567178703486315,29.090181622824563,8.44238011632115C27.844820111350714,5.254060081593963,24.057981623965034,3.7684560679744816,20.708385588748765,3.063816912827214C17.698402115887276,2.4306204948038035,14.735260808869866,3.5593540731731346,11.935795766968138,4.833690641693062C9.372571641930703,6.00048865022571,6.7986696936338005,7.442124445837269,5.547417172014725,9.965198490535835C4.342543441713049,12.394752544204932,5.377963414412488,15.145238931454037,5.478069365872031,17.855300259939686C5.603017853200487,21.23789698495533,3.6645017004009377,25.43658104958906,6.20167387809661,27.67719035718805C8.729605754579133,29.909639436212405,12.716364785781145,27.916772941150843,16,27.14735222235322" fill="#7ed0ec" strokewidth="0"/>
</g>
<g id="SVGRepo_tracerCarrier" stroke-linecap="round" stroke-linejoin="round"/>
<g id="SVGRepo_iconCarrier"> <g> <path style="fill:#FFA317;" d="M408.327,358.5c0,76.768-62.232,139-139,139h-33.654c-76.768,0-139-62.232-139-139v-212 c0-76.768,62.232-139,139-139h33.654c76.768,0,139,62.232,139,139V358.5z"/> <path style="fill:#5A9DEE;" d="M225.187,123.16c0-15.085,12.229-27.313,27.313-27.313l0,0c15.085,0,27.313,12.229,27.313,27.313 v56.366c0,15.084-12.228,27.313-27.313,27.313l0,0c-15.085,0-27.313-12.229-27.313-27.313V123.16z"/> <g> <path style="fill:#214245;" d="M269.327,0h-33.654c-80.78,0-146.5,65.72-146.5,146.5v212c0,80.78,65.72,146.5,146.5,146.5h33.654 c80.78,0,146.5-65.72,146.5-146.5v-212C415.827,65.72,350.107,0,269.327,0z M252.5,199.339c-10.925,0-19.813-8.888-19.813-19.813 V123.16c0-10.925,8.889-19.813,19.813-19.813s19.813,8.888,19.813,19.813v56.366C272.313,190.451,263.425,199.339,252.5,199.339z M400.827,358.5c0,72.509-58.99,131.5-131.5,131.5h-33.654c-72.51,0-131.5-58.991-131.5-131.5v-212 c0-72.509,58.99-131.5,131.5-131.5H245v74.169c-15.603,3.44-27.313,17.37-27.313,33.991v56.366 c0,16.621,11.711,30.55,27.313,33.991v33.326h15v-33.326c15.602-3.44,27.313-17.37,27.313-33.991V123.16 c0-16.621-11.711-30.551-27.313-33.991V15h9.327c72.51,0,131.5,58.991,131.5,131.5V358.5z"/> <path style="fill:#214245;" d="M269.327,460v15c64.238,0,116.5-52.262,116.5-116.5h-15C370.827,414.467,325.294,460,269.327,460z"/> <rect x="245" y="266.845" style="fill:#214245;" width="15" height="30.003"/> </g> </g> </g>
</svg>